<?xml version="1.0" standalone="no"?>
<!DOCTYPE svg PUBLIC "-//W3C//DTD SVG 20010904//EN"
 "http://www.w3.org/TR/2001/REC-SVG-20010904/DTD/svg10.dtd">
<svg version="1.0" xmlns="http://www.w3.org/2000/svg"
 width="230.000000pt" height="230.000000pt" viewBox="0 0 230.000000 230.000000"
 preserveAspectRatio="xMidYMid meet">
<metadata>
Created by potrace 1.11, written by Peter Selinger 2001-2013
</metadata>
<g transform="translate(0.000000,230.000000) scale(0.100000,-0.100000)"
fill="#000000" stroke="none">
<path d="M130 1925 l0 -245 245 0 245 0 0 245 0 245 -245 0 -245 0 0 -245z
m420 0 l0 -175 -175 0 -175 0 0 175 0 175 175 0 175 0 0 -175z"/>
<path d="M270 1925 l0 -105 105 0 105 0 0 105 0 105 -105 0 -105 0 0 -105z"/>
<path d="M830 2100 l0 -70 35 0 35 0 0 -70 0 -70 35 0 35 0 0 70 0 70 -35 0
-35 0 0 70 0 70 -35 0 -35 0 0 -70z"/>
<path d="M1390 2100 l0 -70 35 0 c33 0 35 2 35 35 0 33 2 35 35 35 l35 0 0
-70 0 -70 -35 0 -35 0 0 -70 0 -70 -35 0 -35 0 0 70 0 70 -35 0 c-33 0 -35 2
-35 35 0 33 -2 35 -35 35 -33 0 -35 -2 -35 -35 0 -33 2 -35 35 -35 l35 0 0
-105 0 -105 -35 0 -35 0 0 70 0 70 -35 0 c-33 0 -35 -2 -35 -35 0 -33 -2 -35
-35 -35 l-35 0 0 70 0 70 35 0 c33 0 35 2 35 35 l0 35 -70 0 -70 0 0 -105 0
-105 -70 0 -70 0 0 -35 c0 -33 -2 -35 -35 -35 l-35 0 0 105 0 105 -35 0 c-33
0 -35 2 -35 35 0 33 -2 35 -35 35 l-35 0 0 -70 0 -70 35 0 35 0 0 -70 0 -70
-35 0 c-33 0 -35 -2 -35 -35 0 -33 2 -35 35 -35 33 0 35 2 35 35 0 33 2 35 35
35 l35 0 0 -70 0 -70 -35 0 c-33 0 -35 -2 -35 -35 0 -33 -2 -35 -35 -35 -33 0
-35 2 -35 35 l0 35 -70 0 -70 0 0 -35 c0 -33 -2 -35 -35 -35 -33 0 -35 2 -35
35 l0 35 -70 0 -70 0 0 -70 0 -70 -70 0 -70 0 0 -35 c0 -33 -2 -35 -35 -35
-33 0 -35 -2 -35 -35 0 -33 2 -35 35 -35 33 0 35 -2 35 -35 0 -33 -2 -35 -35
-35 -33 0 -35 -2 -35 -35 l0 -35 140 0 140 0 0 -35 c0 -33 2 -35 35 -35 33 0
35 -2 35 -35 0 -33 -2 -35 -35 -35 -33 0 -35 -2 -35 -35 0 -33 -2 -35 -35 -35
l-35 0 0 70 0 70 -105 0 -105 0 0 -210 0 -210 140 0 140 0 0 35 c0 33 2 35 35
35 33 0 35 -2 35 -35 l0 -35 70 0 70 0 0 35 c0 33 -2 35 -35 35 -33 0 -35 2
-35 35 l0 35 70 0 70 0 0 35 c0 33 2 35 35 35 33 0 35 -2 35 -35 l0 -35 70 0
70 0 0 -70 0 -70 -70 0 -70 0 0 35 c0 33 -2 35 -35 35 l-35 0 0 -105 0 -105
35 0 c33 0 35 -2 35 -35 0 -33 -2 -35 -35 -35 l-35 0 0 -70 0 -70 70 0 70 0 0
-35 c0 -33 -2 -35 -35 -35 -33 0 -35 -2 -35 -35 0 -33 2 -35 35 -35 33 0 35
-2 35 -35 0 -33 2 -35 35 -35 33 0 35 2 35 35 0 33 2 35 35 35 33 0 35 2 35
35 0 33 -2 35 -35 35 l-35 0 0 70 0 70 35 0 c33 0 35 -2 35 -35 0 -33 2 -35
35 -35 33 0 35 -2 35 -35 0 -33 2 -35 35 -35 33 0 35 -2 35 -35 0 -33 2 -35
35 -35 33 0 35 -2 35 -35 0 -33 2 -35 35 -35 l35 0 0 70 0 70 35 0 35 0 0 105
0 105 35 0 c33 0 35 2 35 35 0 33 -2 35 -35 35 -33 0 -35 -2 -35 -35 0 -33 -2
-35 -35 -35 l-35 0 0 -105 0 -105 -35 0 c-33 0 -35 2 -35 35 l0 35 -70 0 -70
0 0 35 c0 33 2 35 35 35 l35 0 0 70 0 70 35 0 c33 0 35 2 35 35 0 33 2 35 35
35 33 0 35 2 35 35 0 33 2 35 35 35 33 0 35 -2 35 -35 0 -33 2 -35 35 -35 l35
0 0 70 0 70 35 0 35 0 0 70 0 70 -35 0 -35 0 0 70 0 70 70 0 70 0 0 -105 0
-105 35 0 c33 0 35 -2 35 -35 0 -33 -2 -35 -35 -35 -33 0 -35 -2 -35 -35 0
-33 -2 -35 -35 -35 l-35 0 0 -140 0 -140 -35 0 c-33 0 -35 -2 -35 -35 0 -33 2
-35 35 -35 l35 0 0 -70 0 -70 35 0 c33 0 35 -2 35 -35 0 -33 2 -35 35 -35 l35
0 0 70 0 70 -35 0 c-33 0 -35 2 -35 35 l0 35 70 0 70 0 0 35 c0 33 2 35 35 35
33 0 35 -2 35 -35 0 -33 2 -35 35 -35 l35 0 0 -70 0 -70 -35 0 c-33 0 -35 2
-35 35 0 33 -2 35 -35 35 -33 0 -35 -2 -35 -35 0 -33 2 -35 35 -35 33 0 35 -2
35 -35 l0 -35 70 0 70 0 0 105 0 105 -35 0 c-33 0 -35 2 -35 35 0 33 2 35 35
35 33 0 35 2 35 35 0 33 2 35 35 35 33 0 35 2 35 35 0 33 2 35 35 35 l35 0 0
-140 0 -140 -35 0 -35 0 0 -70 0 -70 35 0 35 0 0 70 0 70 35 0 c33 0 35 -2 35
-35 0 -33 2 -35 35 -35 l35 0 0 70 0 70 -35 0 -35 0 0 70 0 70 35 0 c33 0 35
2 35 35 0 33 -2 35 -35 35 -33 0 -35 2 -35 35 0 33 -2 35 -35 35 -33 0 -35 2
-35 35 l0 35 70 0 70 0 0 35 0 35 -70 0 -70 0 0 35 c0 33 -2 35 -35 35 -33 0
-35 -2 -35 -35 l0 -35 -70 0 -70 0 0 70 0 70 -35 0 c-33 0 -35 2 -35 35 l0 35
70 0 70 0 0 -35 0 -35 70 0 70 0 0 35 c0 33 -2 35 -35 35 -33 0 -35 2 -35 35
0 33 2 35 35 35 33 0 35 2 35 35 0 33 -2 35 -35 35 -33 0 -35 2 -35 35 0 33 2
35 35 35 33 0 35 2 35 35 0 33 2 35 35 35 l35 0 0 -70 0 -70 35 0 35 0 0 70 0
70 -35 0 c-33 0 -35 2 -35 35 0 33 2 35 35 35 33 0 35 2 35 35 0 33 -2 35 -35
35 -33 0 -35 -2 -35 -35 0 -33 -2 -35 -35 -35 -33 0 -35 -2 -35 -35 0 -33 -2
-35 -35 -35 l-35 0 0 105 0 105 70 0 70 0 0 35 c0 33 -2 35 -35 35 -33 0 -35
2 -35 35 l0 35 -70 0 -70 0 0 -35 c0 -33 -2 -35 -35 -35 l-35 0 0 -70 0 -70
-35 0 -35 0 0 70 0 70 -70 0 -70 0 0 35 c0 33 -2 35 -35 35 -33 0 -35 2 -35
35 0 33 2 35 35 35 33 0 35 2 35 35 0 33 -2 35 -35 35 -33 0 -35 -2 -35 -35 0
-33 -2 -35 -35 -35 l-35 0 0 70 0 70 35 0 c33 0 35 2 35 35 0 33 2 35 35 35
l35 0 0 105 0 105 -35 0 c-33 0 -35 2 -35 35 l0 35 -70 0 -70 0 0 -70z m-420
-420 l0 -70 -35 0 c-33 0 -35 -2 -35 -35 l0 -35 70 0 70 0 0 -35 c0 -33 2 -35
35 -35 33 0 35 2 35 35 0 33 2 35 35 35 33 0 35 2 35 35 l0 35 -70 0 -70 0 0
70 0 70 35 0 c33 0 35 -2 35 -35 0 -33 2 -35 35 -35 33 0 35 2 35 35 0 33 2
35 35 35 33 0 35 -2 35 -35 0 -33 2 -35 35 -35 33 0 35 2 35 35 0 33 2 35 35
35 33 0 35 -2 35 -35 0 -33 2 -35 35 -35 33 0 35 -2 35 -35 0 -33 -2 -35 -35
-35 -33 0 -35 -2 -35 -35 l0 -35 70 0 70 0 0 -35 0 -35 70 0 70 0 0 -35 c0
-33 2 -35 35 -35 33 0 35 -2 35 -35 0 -33 -2 -35 -35 -35 -33 0 -35 2 -35 35
0 33 -2 35 -35 35 -33 0 -35 -2 -35 -35 l0 -35 -105 0 -105 0 0 -70 0 -70 -35
0 -35 0 0 105 0 105 -70 0 -70 0 0 35 c0 33 -2 35 -35 35 l-35 0 0 -70 0 -70
-35 0 -35 0 0 70 0 70 -35 0 c-33 0 -35 -2 -35 -35 0 -33 -2 -35 -35 -35 -33
0 -35 2 -35 35 l0 35 -70 0 -70 0 0 35 c0 33 2 35 35 35 33 0 35 2 35 35 0 33
2 35 35 35 l35 0 0 70 0 70 35 0 35 0 0 -70z m-280 -210 l0 -70 35 0 35 0 0
-70 0 -70 35 0 c33 0 35 -2 35 -35 0 -33 2 -35 35 -35 l35 0 0 70 0 70 35 0
35 0 0 -70 0 -70 35 0 c33 0 35 2 35 35 0 33 2 35 35 35 33 0 35 -2 35 -35 l0
-35 70 0 70 0 0 -70 0 -70 35 0 35 0 0 -70 0 -70 35 0 35 0 0 -70 0 -70 -35 0
-35 0 0 70 0 70 -35 0 c-33 0 -35 -2 -35 -35 0 -33 -2 -35 -35 -35 -33 0 -35
2 -35 35 0 33 2 35 35 35 33 0 35 2 35 35 l0 35 -70 0 -70 0 0 105 0 105 -35
0 -35 0 0 -105 0 -105 -35 0 c-33 0 -35 2 -35 35 0 33 -2 35 -35 35 -33 0 -35
-2 -35 -35 l0 -35 -70 0 -70 0 0 35 c0 33 -2 35 -35 35 -33 0 -35 -2 -35 -35
0 -33 -2 -35 -35 -35 -33 0 -35 -2 -35 -35 0 -33 -2 -35 -35 -35 -33 0 -35 -2
-35 -35 l0 -35 -70 0 -70 0 0 -35 c0 -33 -2 -35 -35 -35 -33 0 -35 2 -35 35 0
33 -2 35 -35 35 -33 0 -35 2 -35 35 l0 35 70 0 70 0 0 35 0 35 105 0 105 0 0
35 c0 33 -2 35 -35 35 -33 0 -35 2 -35 35 0 33 -2 35 -35 35 -33 0 -35 2 -35
35 0 33 2 35 35 35 33 0 35 2 35 35 0 33 -2 35 -35 35 -33 0 -35 2 -35 35 0
33 -2 35 -35 35 -33 0 -35 -2 -35 -35 l0 -35 -70 0 -70 0 0 35 c0 33 -2 35
-35 35 -33 0 -35 2 -35 35 l0 35 70 0 70 0 0 -35 c0 -33 2 -35 35 -35 l35 0 0
70 0 70 35 0 c33 0 35 -2 35 -35 l0 -35 70 0 70 0 0 35 c0 33 -2 35 -35 35
-33 0 -35 2 -35 35 l0 35 70 0 70 0 0 -70z m1260 35 c0 -33 -2 -35 -35 -35
-33 0 -35 2 -35 35 0 33 2 35 35 35 33 0 35 -2 35 -35z m-700 -210 c0 -33 -2
-35 -35 -35 -33 0 -35 2 -35 35 0 33 2 35 35 35 33 0 35 -2 35 -35z m630 0 c0
-33 2 -35 35 -35 33 0 35 -2 35 -35 0 -33 -2 -35 -35 -35 l-35 0 0 -70 0 -70
-105 0 -105 0 0 -70 0 -70 35 0 c33 0 35 -2 35 -35 l0 -35 -70 0 -70 0 0 140
0 140 -35 0 c-33 0 -35 2 -35 35 0 33 -2 35 -35 35 -33 0 -35 2 -35 35 l0 35
105 0 105 0 0 -35 c0 -33 2 -35 35 -35 33 0 35 2 35 35 0 33 2 35 35 35 33 0
35 2 35 35 0 33 2 35 35 35 33 0 35 -2 35 -35z m-1610 -280 c0 -33 -2 -35 -35
-35 -33 0 -35 2 -35 35 0 33 2 35 35 35 33 0 35 -2 35 -35z m840 -175 l0 -70
35 0 35 0 0 -70 0 -70 -35 0 c-33 0 -35 -2 -35 -35 l0 -35 -70 0 -70 0 0 -35
0 -35 -70 0 -70 0 0 35 c0 33 -2 35 -35 35 -33 0 -35 2 -35 35 0 33 2 35 35
35 33 0 35 -2 35 -35 l0 -35 70 0 70 0 0 35 c0 33 -2 35 -35 35 -33 0 -35 2
-35 35 0 33 2 35 35 35 l35 0 0 105 0 105 70 0 70 0 0 -70z m700 -245 l0 -105
-105 0 -105 0 0 105 0 105 105 0 105 0 0 -105z m140 0 c0 -33 -2 -35 -35 -35
-33 0 -35 2 -35 35 0 33 2 35 35 35 33 0 35 -2 35 -35z m-420 -210 c0 -33 -2
-35 -35 -35 -33 0 -35 2 -35 35 0 33 2 35 35 35 33 0 35 -2 35 -35z m-630
-140 c0 -33 -2 -35 -35 -35 -33 0 -35 2 -35 35 0 33 2 35 35 35 33 0 35 -2 35
-35z"/>
<path d="M1180 1645 c0 -33 2 -35 35 -35 33 0 35 -2 35 -35 0 -33 2 -35 35
-35 33 0 35 2 35 35 0 33 -2 35 -35 35 -33 0 -35 2 -35 35 0 33 -2 35 -35 35
-33 0 -35 -2 -35 -35z"/>
<path d="M1390 1435 c0 -33 2 -35 35 -35 33 0 35 2 35 35 0 33 -2 35 -35 35
-33 0 -35 -2 -35 -35z"/>
<path d="M550 1295 l0 -35 70 0 70 0 0 -35 0 -35 -70 0 -70 0 0 -35 c0 -33 2
-35 35 -35 33 0 35 -2 35 -35 0 -33 2 -35 35 -35 l35 0 0 70 0 70 35 0 c33 0
35 2 35 35 0 33 -2 35 -35 35 -33 0 -35 2 -35 35 l0 35 -70 0 -70 0 0 -35z"/>
<path d="M760 1085 l0 -35 70 0 70 0 0 35 0 35 -70 0 -70 0 0 -35z"/>
<path d="M1810 1225 c0 -33 2 -35 35 -35 33 0 35 2 35 35 0 33 -2 35 -35 35
-33 0 -35 -2 -35 -35z"/>
<path d="M970 665 l0 -35 70 0 70 0 0 35 0 35 -70 0 -70 0 0 -35z"/>
<path d="M1670 595 c0 -33 2 -35 35 -35 33 0 35 2 35 35 0 33 -2 35 -35 35
-33 0 -35 -2 -35 -35z"/>
<path d="M1670 1925 l0 -245 245 0 245 0 0 245 0 245 -245 0 -245 0 0 -245z
m420 0 l0 -175 -175 0 -175 0 0 175 0 175 175 0 175 0 0 -175z"/>
<path d="M1810 1925 l0 -105 105 0 105 0 0 105 0 105 -105 0 -105 0 0 -105z"/>
<path d="M2090 1015 c0 -33 2 -35 35 -35 33 0 35 2 35 35 0 33 -2 35 -35 35
-33 0 -35 -2 -35 -35z"/>
<path d="M2090 875 c0 -33 2 -35 35 -35 33 0 35 2 35 35 0 33 -2 35 -35 35
-33 0 -35 -2 -35 -35z"/>
<path d="M130 385 l0 -245 245 0 245 0 0 245 0 245 -245 0 -245 0 0 -245z
m420 0 l0 -175 -175 0 -175 0 0 175 0 175 175 0 175 0 0 -175z"/>
<path d="M270 385 l0 -105 105 0 105 0 0 105 0 105 -105 0 -105 0 0 -105z"/>
</g>
</svg>
